<svg width="194" height="32" viewBox="0 0 194 32" fill="none" xmlns="http://www.w3.org/2000/svg">
<path d="M46.9788 7.70422H51.9357V10.3134H52.0506C52.6235 9.33311 53.4487 8.52463 54.4404 7.97212C55.432 7.41961 56.5536 7.14336 57.6883 7.17217C58.8183 7.15423 59.9289 7.46693 60.8836 8.07188C61.8383 8.67682 62.5955 9.54765 63.0622 10.5773H63.1345C64.462 8.44909 66.5044 7.17217 68.9637 7.17217C73.0484 7.17217 75.346 9.82389 75.346 14.0633V27.122H70.1976V14.9146C70.1976 12.7225 69.0998 11.5861 67.2192 11.5861C65.062 11.5861 63.7387 13.2503 63.7387 15.8425V27.122H58.5903V14.9146C58.5903 12.7225 57.4926 11.5861 55.6119 11.5861C53.5313 11.5861 52.1272 13.2503 52.1272 15.8425V27.122H46.983L46.9788 7.70422Z" fill="#4075FF"></path>
<path d="M77.5798 17.4301C77.5798 11.6414 81.7027 7.17215 87.7191 7.17215C93.7355 7.17215 97.8585 11.6414 97.8585 17.4301C97.8585 23.2188 93.7355 27.688 87.7191 27.688C81.7027 27.688 77.5798 23.2231 77.5798 17.4301ZM92.6378 17.4301C92.6378 13.6461 90.8592 11.071 87.7191 11.071C84.579 11.071 82.8005 13.6249 82.8005 17.4301C82.8005 21.2353 84.5407 23.7508 87.7191 23.7508C90.8975 23.7508 92.6463 21.2183 92.6463 17.4301H92.6378Z" fill="#4075FF"></path>
<path d="M99.3052 17.4301C99.3052 11.3732 102.747 7.17215 107.589 7.17215C110.317 7.17215 112.019 8.42349 113.078 10.0494H113.189V0.0596542H118.337V27.1219H113.38V24.5681H113.321C112.185 26.4239 110.257 27.671 107.534 27.671C102.632 27.6838 99.3052 23.7168 99.3052 17.4301ZM113.304 17.545C113.304 13.8334 112.095 11.3391 108.802 11.3391C105.964 11.3391 104.526 13.8334 104.526 17.4301C104.526 21.18 106.002 23.3891 108.649 23.3891C111.717 23.3763 113.321 21.1034 113.321 17.545H113.304Z" fill="#4075FF"></path>
<path d="M120.72 17.3917C120.72 11.6413 124.617 7.17636 130.293 7.17636C136.535 7.17636 139.863 11.9478 139.863 18.873H125.787C126.166 21.8525 127.834 23.721 130.744 23.721C132.753 23.721 133.923 22.8102 134.493 21.3332H139.56C138.841 24.7809 135.778 27.6923 130.783 27.6923C124.349 27.6838 120.72 23.1847 120.72 17.3917ZM125.864 15.3104H134.493C134.34 12.8502 132.714 11.1476 130.366 11.1476C127.643 11.1476 126.319 12.7864 125.864 15.3104Z" fill="#4075FF"></path>
<path d="M147.202 10.8071H147.317C148.491 8.61076 149.815 7.47431 152.082 7.47431C152.493 7.44995 152.904 7.5019 153.295 7.62754V12.1308H153.18C149.815 11.7903 147.394 13.5695 147.394 17.6641V27.1261H142.254V7.70839H147.211L147.202 10.8071Z" fill="#4075FF"></path>
<path d="M160.55 10.3517H160.665C161.988 8.27029 163.766 7.17215 166.413 7.17215C170.425 7.17215 173.11 10.2027 173.11 14.4421V27.1219H167.966V15.204C167.966 13.1226 166.753 11.6456 164.6 11.6456C162.328 11.6456 160.665 13.4631 160.665 16.1106V27.1262H155.516V7.70841H160.55V10.3517Z" fill="#4075FF"></path>
<path d="M174.859 7.70419H177.51V5.97606C177.51 1.24293 181.177 -0.40857 186.134 0.106455V4.08198C183.713 3.96706 182.654 4.27348 182.654 6.27825V7.71692H193.589V11.2753H182.675V27.1347H177.531V11.2753H174.88L174.859 7.70419ZM188.445 0.0426508H193.589V4.65659H188.445V0.0426508ZM188.445 7.70419H193.589V27.1219H188.445V7.70419Z" fill="#4075FF"></path>
<path fill-rule="evenodd" clip-rule="evenodd" d="M14.9017 9.79805L29.5017 2.49805V10.098L14.9018 17.398L29.5017 24.5979V31.9979L14.9017 24.7979L0.00170898 31.9979V24.5979L14.9016 17.398L0.00170898 10.098V2.49805L14.9017 9.79805Z" fill="#4075FF"></path>
</svg>